#tb 0: 4/63
#media_type 0: video
#codec_id 0: rawvideo
#dimensions 0: 1280x960
#sar 0: 0/1
0,          0,          0,        1,  1843200, 0x868a4e64
0,          4,          4,        1,  1843200, 0x8dda4373
0,          6,          6,        1,  1843200, 0xfcde3afc
0,          8,          8,        1,  1843200, 0xeb4048a7
0,         12,         12,        1,  1843200, 0xe2aa5718
0,         14,         14,        1,  1843200, 0x86c35765
0,         16,         16,        1,  1843200, 0x05c66542
0,         18,         18,        1,  1843200, 0x020967f8
0,         22,         22,        1,  1843200, 0x57757510
0,         24,         24,        1,  1843200, 0xb91c61be
0,         26,         26,        1,  1843200, 0x702381e9
0,         30,         30,        1,  1843200, 0xe28c6851
0,         32,         32,        1,  1843200, 0x7f806daa
0,         34,         34,        1,  1843200, 0xc0758a39
0,         38,         38,        1,  1843200, 0x3af87be2
0,         40,         40,        1,  1843200, 0x1d1876eb
0,         42,         42,        1,  1843200, 0x720e81dd
0,         44,         44,        1,  1843200, 0xd85b7556
0,         48,         48,        1,  1843200, 0xb9968314
0,         50,         50,        1,  1843200, 0x946b9d34
0,         52,         52,        1,  1843200, 0xd2d87d03
0,         54,         54,        1,  1843200, 0xdd1b8056
0,         58,         58,        1,  1843200, 0x436b7937
0,         60,         60,        1,  1843200, 0xe87a6e42
0,         62,         62,        1,  1843200, 0x57475c09
0,         64,         64,        1,  1843200, 0xc3b45a77
0,         68,         68,        1,  1843200, 0x0308494c
0,         70,         70,        1,  1843200, 0x1ed02c80
0,         72,         72,        1,  1843200, 0x48602e92
0,         74,         74,        1,  1843200, 0xcf332caa
